<svg width="512" height="512" viewBox="0 0 512 512" fill="none" xmlns="http://www.w3.org/2000/svg">
<g clip-path="url(#clip0_37_8)">
<path d="M416 0H96C42.9807 0 0 42.9807 0 96V416C0 469.019 42.9807 512 96 512H416C469.019 512 512 469.019 512 416V96C512 42.9807 469.019 0 416 0Z" fill="#3B82F6"/>
<path fill-rule="evenodd" clip-rule="evenodd" d="M425.555 86.4445C462.149 123.037 462.147 182.918 425.556 219.511L347.273 297.795C301.08 343.987 222.552 330.434 197.397 272.824C225.014 248.822 238.48 256.586 264.793 267.716C280.282 274.266 298.452 270.76 311.026 258.184L387.498 181.715C404.036 165.175 404.037 138.112 387.498 121.572C370.962 105.036 343.884 105.049 327.359 121.572L272.508 176.424C254.36 167.7 233.941 165.114 214.445 168.675C218.453 161.881 223.306 155.622 228.886 150.047L292.489 86.4452C329.083 49.8533 388.961 49.8502 425.555 86.4445ZM86.4446 425.554L86.4453 425.555C123.04 462.147 182.918 462.147 219.51 425.555L285.445 359.62C291.227 353.844 296.227 347.336 300.317 340.26C278.865 345.609 255.865 343.35 235.728 333.485L181.713 387.498C165.19 404.021 138.113 404.037 121.575 387.498C105.036 370.96 105.036 343.898 121.575 327.36L198.047 250.887C213.717 235.217 244.99 230.545 268.626 252.186C291.504 249.775 300.389 245.405 314.6 231.799C284.282 178.335 208.707 170.226 164.728 214.205L86.4446 292.489C49.8518 329.082 49.8518 388.96 86.4446 425.554Z" fill="white"/>
</g>
<defs>
<clipPath id="clip0_37_8">
<rect width="512" height="512" fill="white"/>
</clipPath>
</defs>
</svg>
