<svg width="16" height="16" viewBox="0 0 16 16" fill="none" xmlns="http://www.w3.org/2000/svg">
<g clip-path="url(#clip0_37_8)">
<path d="M13 0H3C1.34315 0 0 1.34315 0 3V13C0 14.6569 1.34315 16 3 16H13C14.6569 16 16 14.6569 16 13V3C16 1.34315 14.6569 0 13 0Z" fill="#3B82F6"/>
<path fill-rule="evenodd" clip-rule="evenodd" d="M13.299 2.701C14.442 3.845 14.442 5.591 13.299 6.735L10.853 9.181C9.409 10.625 6.955 10.326 5.919 8.526C7.032 7.776 7.453 8.018 8.275 8.366C8.759 8.567 9.327 8.462 9.72 8.069L12.11 5.679C12.626 5.163 12.626 4.274 12.11 3.758C11.594 3.242 10.705 3.242 10.189 3.758L8.516 5.431C7.949 5.241 7.311 5.16 6.702 5.265C6.827 5.059 6.978 4.863 7.153 4.688L9.153 2.688C10.296 1.545 12.042 1.545 13.186 2.688L13.299 2.701ZM2.701 13.299L2.701 13.299C3.845 14.442 5.591 14.442 6.735 13.299L8.92 11.114C9.101 10.933 9.257 10.73 9.385 10.508C8.715 10.801 7.996 10.73 7.367 10.422L5.679 12.11C5.163 12.626 4.274 12.626 3.758 12.11C3.242 11.594 3.242 10.705 3.758 10.189L6.189 7.758C6.679 7.268 7.656 7.205 8.27 7.881C9.11 7.806 9.387 7.669 9.832 7.244C8.884 5.573 6.522 5.32 5.148 6.694L2.701 9.14C1.558 10.283 1.558 12.029 2.701 13.299Z" fill="white"/>
</g>
<defs>
<clipPath id="clip0_37_8">
<rect width="16" height="16" fill="white"/>
</clipPath>
</defs>
</svg>
