<svg width="192" height="192" viewBox="0 0 192 192" fill="none" xmlns="http://www.w3.org/2000/svg">
<g clip-path="url(#clip0_37_8)">
<path d="M156 0H36C16.1177 0 0 16.1177 0 36V156C0 175.882 16.1177 192 36 192H156C175.882 192 192 175.882 192 156V36C192 16.1177 175.882 0 156 0Z" fill="#3B82F6"/>
<path fill-rule="evenodd" clip-rule="evenodd" d="M159.582 32.418C173.304 46.14 173.304 67.092 159.582 80.814L130.23 110.166C112.902 127.494 83.46 123.912 71.022 102.306C84.378 93.306 89.43 96.216 99.3 100.392C105.108 102.798 111.918 101.538 116.634 96.822L145.314 68.142C151.512 61.944 151.512 52.188 145.314 45.99C139.116 39.792 129.36 39.792 123.162 45.99L102.192 66.96C95.382 62.886 87.726 61.92 80.418 63.174C81.918 60.708 83.736 58.356 85.83 56.262L109.83 32.262C123.552 18.54 144.504 18.54 158.226 32.262L159.582 32.418ZM32.418 159.582L32.418 159.582C46.14 173.304 67.092 173.304 80.814 159.582L107.04 133.356C109.212 131.184 111.084 128.754 112.62 126.096C104.574 129.606 95.946 128.754 88.398 125.058L68.142 145.314C61.944 151.512 52.188 151.512 45.99 145.314C39.792 139.116 39.792 129.36 45.99 123.162L74.232 94.92C80.142 89.01 91.872 86.454 99.234 94.566C109.314 93.636 112.644 92.014 117.978 86.922C106.608 66.876 78.264 63.834 61.776 80.322L32.418 109.68C18.696 123.402 18.696 144.354 32.418 159.582Z" fill="white"/>
</g>
<defs>
<clipPath id="clip0_37_8">
<rect width="192" height="192" fill="white"/>
</clipPath>
</defs>
</svg>
